<?xml version="1.0" standalone="no"?><!DOCTYPE svg PUBLIC "-//W3C//DTD SVG 1.1//EN" "http://www.w3.org/Graphics/SVG/1.1/DTD/svg11.dtd"><svg height="1024" node-id="1" sillyvg="true" template-height="1024" template-width="1024" version="1.1" viewBox="0 0 1024 1024" width="1024" xmlns="http://www.w3.org/2000/svg" xmlns:xlink="http://www.w3.org/1999/xlink"><defs node-id="94"><linearGradient gradientUnits="userSpaceOnUse" id="paint0_linear_1_78" node-id="31" spreadMethod="pad" x1="663.432" x2="527.793" y1="150.63" y2="431.105"><stop offset="0" stop-color="#3c83ed"></stop><stop offset="1" stop-color="#5485f0"></stop></linearGradient><linearGradient gradientUnits="userSpaceOnUse" id="paint1_linear_1_78" node-id="34" spreadMethod="pad" x1="480.813" x2="403.586" y1="211.339" y2="371.03"><stop offset="0" stop-color="#5da4ff"></stop><stop offset="1" stop-color="#5ba2fc"></stop></linearGradient><linearGradient gradientUnits="userSpaceOnUse" id="paint2_linear_1_78" node-id="37" spreadMethod="pad" x1="591.001" x2="483.929" y1="107" y2="226.87"><stop offset="0" stop-color="#459fff"></stop><stop offset="1" stop-color="#93c4ff"></stop></linearGradient><linearGradient gradientUnits="userSpaceOnUse" id="paint3_linear_1_78" node-id="40" spreadMethod="pad" x1="440.681" x2="305.041" y1="530.201" y2="810.677"><stop offset="0" stop-color="#3c83ed"></stop><stop offset="1" stop-color="#5485f0"></stop></linearGradient><linearGradient gradientUnits="userSpaceOnUse" id="paint4_linear_1_78" node-id="43" spreadMethod="pad" x1="258.062" x2="180.834" y1="590.91" y2="750.602"><stop offset="0" stop-color="#5da4ff"></stop><stop offset="1" stop-color="#5ba2fc"></stop></linearGradient><linearGradient gradientUnits="userSpaceOnUse" id="paint5_linear_1_78" node-id="46" spreadMethod="pad" x1="368.25" x2="261.179" y1="486.571" y2="606.441"><stop offset="0" stop-color="#459fff"></stop><stop offset="1" stop-color="#93c4ff"></stop></linearGradient><linearGradient gradientUnits="userSpaceOnUse" id="paint6_linear_1_78" node-id="49" spreadMethod="pad" x1="879.06" x2="743.42" y1="555.152" y2="835.628"><stop offset="0" stop-color="#3c83ed"></stop><stop offset="1" stop-color="#5485f0"></stop></linearGradient><linearGradient gradientUnits="userSpaceOnUse" id="paint7_linear_1_78" node-id="52" spreadMethod="pad" x1="696.441" x2="619.213" y1="615.862" y2="775.553"><stop offset="0" stop-color="#5da4ff"></stop><stop offset="1" stop-color="#5ba2fc"></stop></linearGradient><linearGradient gradientUnits="userSpaceOnUse" id="paint8_linear_1_78" node-id="55" spreadMethod="pad" x1="806.629" x2="699.557" y1="511.522" y2="631.392"><stop offset="0" stop-color="#459fff"></stop><stop offset="1" stop-color="#93c4ff"></stop></linearGradient><linearGradient gradientUnits="userSpaceOnUse" id="paint9_linear_1_78" node-id="58" spreadMethod="pad" x1="650.96" x2="515.321" y1="663.847" y2="944.322"><stop offset="0" stop-color="#3c83ed"></stop><stop offset="1" stop-color="#5485f0"></stop></linearGradient><linearGradient gradientUnits="userSpaceOnUse" id="paint10_linear_1_78" node-id="61" spreadMethod="pad" x1="468.341" x2="391.114" y1="724.556" y2="884.247"><stop offset="0" stop-color="#5da4ff"></stop><stop offset="1" stop-color="#5ba2fc"></stop></linearGradient><linearGradient gradientUnits="userSpaceOnUse" id="paint11_linear_1_78" node-id="64" spreadMethod="pad" x1="578.529" x2="471.457" y1="620.217" y2="740.087"><stop offset="0" stop-color="#459fff"></stop><stop offset="1" stop-color="#93c4ff"></stop></linearGradient><linearGradient gradientUnits="userSpaceOnUse" id="paint12_linear_1_78" node-id="67" spreadMethod="pad" x1="879.06" x2="743.42" y1="293.19" y2="573.666"><stop offset="0" stop-color="#3c83ed"></stop><stop offset="1" stop-color="#5485f0"></stop></linearGradient><linearGradient gradientUnits="userSpaceOnUse" id="paint13_linear_1_78" node-id="70" spreadMethod="pad" x1="806.629" x2="699.557" y1="249.56" y2="369.43"><stop offset="0" stop-color="#459fff"></stop><stop offset="1" stop-color="#93c4ff"></stop></linearGradient><linearGradient gradientUnits="userSpaceOnUse" id="paint14_linear_1_78" node-id="73" spreadMethod="pad" x1="453.157" x2="317.517" y1="271.805" y2="552.28"><stop offset="0" stop-color="#3c83ed"></stop><stop offset="1" stop-color="#5485f0"></stop></linearGradient><linearGradient gradientUnits="userSpaceOnUse" id="paint15_linear_1_78" node-id="76" spreadMethod="pad" x1="270.538" x2="193.31" y1="332.514" y2="492.205"><stop offset="0" stop-color="#5da4ff"></stop><stop offset="1" stop-color="#5ba2fc"></stop></linearGradient><linearGradient gradientUnits="userSpaceOnUse" id="paint16_linear_1_78" node-id="79" spreadMethod="pad" x1="380.726" x2="273.654" y1="228.175" y2="348.045"><stop offset="0" stop-color="#459fff"></stop><stop offset="1" stop-color="#93c4ff"></stop></linearGradient><linearGradient gradientUnits="userSpaceOnUse" id="paint17_linear_1_78" node-id="82" spreadMethod="pad" x1="666.999" x2="479.999" y1="418.998" y2="621.498"><stop offset="0" stop-color="#edf6fc"></stop><stop offset="1" stop-color="#5485f0"></stop></linearGradient><linearGradient gradientUnits="userSpaceOnUse" id="paint18_linear_1_78" node-id="85" spreadMethod="pad" x1="379.499" x2="533.499" y1="443.505" y2="678.005"><stop offset="0" stop-color="#f2f6ff"></stop><stop offset="1" stop-color="#559bfc"></stop></linearGradient><linearGradient gradientUnits="userSpaceOnUse" id="paint19_linear_1_78" node-id="88" spreadMethod="pad" x1="494.499" x2="519.999" y1="334.999" y2="473.999"><stop offset="0" stop-color="#f6f6ff"></stop><stop offset="1" stop-color="#93c4ff"></stop></linearGradient><filter height="554.821" id="filter0_f_1_78" node-id="27" width="878.75" x="80.25" y="545.141"><feFlood color-interpolation-filters="sRGB" flood-color="#000000" flood-opacity="0" result="BackgroundImageFix"></feFlood><feBlend color-interpolation-filters="sRGB" in="SourceGraphic" in2="BackgroundImageFix" mode="normal" result="shape"></feBlend><feGaussianBlur color-interpolation-filters="sRGB" in="shape" result="effect1_foregroundBlur_1_78" stdDeviation="50 50"></feGaussianBlur></filter><clipPath id="clip0_1_78" node-id="91"><path d="M 0.00 0.00 L 1024.00 0.00 L 1024.00 1024.00 L 0.00 1024.00 Z" fill="#000000" fill-rule="nonzero" node-id="225" stroke="none" target-height="1024" target-width="1024" target-x="0" target-y="0"></path></clipPath></defs><g clip-path="url(#clip0_1_78)" id="sillyvg_g_0" node-id="229"><path d="M 180.25 770.17 L 578.24 999.96 L 859.00 733.15 L 402.83 645.14 L 180.25 770.17 Z" fill="#595656" fill-opacity="0.316569" fill-rule="evenodd" filter="url(#filter0_f_1_78)" group-id="1" node-id="233" stroke="none" target-height="354.82098" target-width="678.75" target-x="180.25" target-y="645.141"></path><path d="M 519.30 243.98 L 519.18 426.94 L 671.91 337.78 L 672.04 154.79 L 519.30 243.98 Z" fill="url(#paint0_linear_1_78)" fill-rule="nonzero" node-id="236" stroke="none" target-height="272.147" target-width="152.86102" target-x="519.182" target-y="154.794"></path><path d="M 365.08 338.42 L 519.18 426.93 L 519.30 243.98 L 365.22 155.44 L 365.08 338.42 Z" fill="url(#paint1_linear_1_78)" fill-rule="nonzero" node-id="238" stroke="none" target-height="271.498" target-width="154.224" target-x="365.081" target-y="155.436"></path><path d="M 517.96 66.25 L 365.22 155.44 L 519.31 243.98 L 672.04 154.79 L 517.96 66.25 Z" fill="url(#paint2_linear_1_78)" fill-rule="nonzero" node-id="240" stroke="none" target-height="177.73041" target-width="306.827" target-x="365.218" target-y="66.2476"></path><path d="M 296.55 623.55 L 296.43 806.51 L 449.16 717.35 L 449.29 534.37 L 296.55 623.55 Z" fill="url(#paint3_linear_1_78)" fill-rule="nonzero" node-id="242" stroke="none" target-height="272.148" target-width="152.85999" target-x="296.431" target-y="534.365"></path><path d="M 142.33 717.99 L 296.43 806.50 L 296.55 623.55 L 142.47 535.01 L 142.33 717.99 Z" fill="url(#paint4_linear_1_78)" fill-rule="nonzero" node-id="244" stroke="none" target-height="271.498" target-width="154.223" target-x="142.33" target-y="535.007"></path><path d="M 295.20 445.82 L 142.47 535.01 L 296.56 623.55 L 449.29 534.36 L 295.20 445.82 Z" fill="url(#paint5_linear_1_78)" fill-rule="nonzero" node-id="246" stroke="none" target-height="177.73099" target-width="306.82703" target-x="142.467" target-y="445.819"></path><path d="M 734.93 648.51 L 734.81 831.46 L 887.53 742.30 L 887.67 559.32 L 734.93 648.51 Z" fill="url(#paint6_linear_1_78)" fill-rule="nonzero" node-id="248" stroke="none" target-height="272.148" target-width="152.85999" target-x="734.81" target-y="559.316"></path><path d="M 580.71 742.94 L 734.81 831.46 L 734.93 648.50 L 580.84 559.96 L 580.71 742.94 Z" fill="url(#paint7_linear_1_78)" fill-rule="nonzero" node-id="250" stroke="none" target-height="271.498" target-width="154.22302" target-x="580.709" target-y="559.958"></path><path d="M 733.58 470.77 L 580.85 559.96 L 734.93 648.50 L 887.67 559.31 L 733.58 470.77 Z" fill="url(#paint8_linear_1_78)" fill-rule="nonzero" node-id="252" stroke="none" target-height="177.73099" target-width="306.826" target-x="580.846" target-y="470.77"></path><path d="M 506.83 757.20 L 506.71 940.16 L 659.44 851.00 L 659.57 668.01 L 506.83 757.20 Z" fill="url(#paint9_linear_1_78)" fill-rule="nonzero" node-id="254" stroke="none" target-height="272.14703" target-width="152.861" target-x="506.71" target-y="668.011"></path><path d="M 352.61 851.64 L 506.71 940.15 L 506.83 757.19 L 352.74 668.65 L 352.61 851.64 Z" fill="url(#paint10_linear_1_78)" fill-rule="nonzero" node-id="256" stroke="none" target-height="271.498" target-width="154.224" target-x="352.609" target-y="668.653"></path><path d="M 505.48 579.47 L 352.75 668.65 L 506.83 757.20 L 659.57 668.00 L 505.48 579.47 Z" fill="url(#paint11_linear_1_78)" fill-rule="nonzero" node-id="258" stroke="none" target-height="177.72998" target-width="306.827" target-x="352.746" target-y="579.465"></path><path d="M 734.93 386.55 L 734.81 569.50 L 887.53 480.34 L 887.67 297.35 L 734.93 386.55 Z" fill="url(#paint12_linear_1_78)" fill-rule="nonzero" node-id="260" stroke="none" target-height="272.148" target-width="152.85999" target-x="734.81" target-y="297.354"></path><path d="M 580.71 480.98 L 734.81 569.50 L 734.93 386.54 L 580.84 298.00 L 580.71 480.98 Z" fill="#3684f1" fill-rule="nonzero" node-id="262" stroke="none" target-height="271.498" target-width="154.22302" target-x="580.709" target-y="297.997"></path><path d="M 733.58 208.81 L 580.85 298.00 L 734.93 386.54 L 887.67 297.35 L 733.58 208.81 Z" fill="url(#paint13_linear_1_78)" fill-rule="nonzero" node-id="264" stroke="none" target-height="177.731" target-width="306.826" target-x="580.846" target-y="208.808"></path><path d="M 309.03 365.16 L 308.91 548.12 L 461.63 458.95 L 461.77 275.97 L 309.03 365.16 Z" fill="url(#paint14_linear_1_78)" fill-rule="nonzero" node-id="266" stroke="none" target-height="272.14703" target-width="152.85999" target-x="308.907" target-y="275.969"></path><path d="M 154.81 459.60 L 308.91 548.11 L 309.03 365.15 L 154.94 276.61 L 154.81 459.60 Z" fill="url(#paint15_linear_1_78)" fill-rule="nonzero" node-id="268" stroke="none" target-height="271.49802" target-width="154.22299" target-x="154.806" target-y="276.611"></path><path d="M 307.68 187.42 L 154.94 276.61 L 309.03 365.15 L 461.77 275.96 L 307.68 187.42 Z" fill="url(#paint16_linear_1_78)" fill-rule="nonzero" node-id="270" stroke="none" target-height="177.73001" target-width="306.82602" target-x="154.943" target-y="187.423"></path><path d="M 521.09 495.25 L 520.97 678.21 L 673.69 589.04 L 673.83 406.06 L 521.09 495.25 Z" fill="url(#paint17_linear_1_78)" fill-rule="nonzero" node-id="272" stroke="none" target-height="272.147" target-width="152.85999" target-x="520.965" target-y="406.059"></path><path d="M 366.86 589.68 L 520.97 678.20 L 521.09 495.24 L 367.00 406.70 L 366.86 589.68 Z" fill="url(#paint18_linear_1_78)" fill-rule="nonzero" node-id="274" stroke="none" target-height="271.498" target-width="154.22296" target-x="366.864" target-y="406.701"></path><path d="M 519.74 317.51 L 367.00 406.70 L 521.09 495.24 L 673.83 406.05 L 519.74 317.51 Z" fill="url(#paint19_linear_1_78)" fill-rule="nonzero" node-id="276" stroke="none" target-height="177.73001" target-width="306.82602" target-x="367.001" target-y="317.513"></path></g></svg>